<svg xmlns="http://www.w3.org/2000/svg" viewBox="0 0 48 48">
  <!-- Map background -->
  <rect width="48" height="48" rx="10" fill="#e8f5e9"/>
  <!-- Roads -->
  <rect x="0" y="21" width="48" height="6" fill="#c5e0c5"/>
  <rect x="21" y="0" width="6" height="48" fill="#c5e0c5"/>
  <!-- City blocks -->
  <rect x="2" y="2" width="17" height="17" rx="2" fill="#d4edda" opacity="0.9"/>
  <rect x="29" y="2" width="17" height="17" rx="2" fill="#d4edda" opacity="0.9"/>
  <rect x="2" y="29" width="17" height="17" rx="2" fill="#d4edda" opacity="0.9"/>
  <rect x="29" y="29" width="17" height="17" rx="2" fill="#d4edda" opacity="0.9"/>
  <!-- Blob map pin (organic/wobbly teardrop) -->
  <path d="M24 7 C20.5 7 14.5 10.5 13.5 17 C13 21.5 15.5 25.5 18 29 C20 31.5 22.5 34.5 23.5 37.5 C23.8 38.5 24.2 38.5 24.5 37.5 C25.5 34.5 28.5 31.5 30.5 29 C33 25.5 35.5 21.5 34.5 17 C33.5 10.5 27.5 7 24 7 Z" fill="#863bff"/>
  <!-- Inner glow -->
  <ellipse cx="22" cy="18" rx="5" ry="5.5" fill="white" opacity="0.35"/>
</svg>
